<svg width="98" height="98" viewBox="0 0 98 98" fill="none" xmlns="http://www.w3.org/2000/svg">
<path d="M91.6326 52.2641L32.2496 84.9456C28.9941 86.7373 24.9025 85.5506 23.1108 82.2951L5.01468 49.4141C3.223 46.1586 4.40967 42.067 7.66519 40.2753L67.0482 7.59378C70.3037 5.8021 74.3953 6.98878 76.1869 10.2443L94.2831 43.1253C96.0748 46.3809 94.8881 50.4724 91.6326 52.2641Z" fill="#FEBC1F"/>
<path d="M90.3357 49.9077L30.9527 82.5892C27.6972 84.3809 23.6056 83.1942 21.814 79.9387L3.71781 47.0576C1.92612 43.8021 3.1128 39.7105 6.36831 37.9189L65.7513 5.23734C69.0068 3.44566 73.0984 4.63233 74.8901 7.88785L92.9862 40.7689C94.7779 44.0244 93.5912 48.116 90.3357 49.9077Z" fill="#FFD475"/>
<path d="M65.7513 5.23731L6.36832 37.9189C3.11279 39.7106 1.92614 43.8022 3.71778 47.0576L21.814 79.9387C21.814 79.9387 4.95195 47.6911 71.7549 5.00353C69.893 4.16695 67.6773 4.17731 65.7513 5.23731Z" fill="#FEBC1F"/>
<path d="M9.03648 51.0899L11.3089 55.2188C11.8817 56.2596 13.1898 56.639 14.2306 56.0662L76.8754 21.5895C77.9162 21.0167 78.2955 19.7087 77.7227 18.6679L75.4503 14.5389C74.8775 13.4981 73.5695 13.1187 72.5287 13.6915L9.88386 48.1682C8.84306 48.741 8.46368 50.0491 9.03648 51.0899Z" fill="#1D2943"/>
<path d="M8.4066 49.9456L10.679 54.0746C11.2518 55.1153 12.5599 55.4947 13.6007 54.9219L76.2455 20.4453C77.2863 19.8725 77.6656 18.5644 77.0928 17.5236L74.8204 13.3946C74.2476 12.3538 72.9396 11.9744 71.8988 12.5472L9.25397 47.0239C8.21318 47.5967 7.83379 48.9048 8.4066 49.9456Z" fill="#4C5C75"/>
<path d="M80.8953 93.5976L13.1132 93.5977C9.39718 93.5977 6.38478 90.5853 6.38478 86.8693L6.38477 49.3375C6.38476 45.6216 9.39716 42.6092 13.1131 42.6092L80.8953 42.6091C84.6113 42.6091 87.6237 45.6215 87.6237 49.3375L87.6237 86.8693C87.6237 90.5852 84.6113 93.5976 80.8953 93.5976Z" fill="#5094FF"/>
<path d="M13.1131 90.9077L80.8953 90.9077C84.6113 90.9077 87.6237 87.8953 87.6237 84.1793L87.6237 46.6476C87.6237 42.9316 84.6113 39.9192 80.8953 39.9192L13.1132 39.9192C9.39718 39.9192 6.38478 42.9316 6.38478 46.6476L6.38477 84.1793C6.38476 87.8953 9.39716 90.9077 13.1131 90.9077Z" fill="#57B3FE"/>
<path d="M13.1136 39.9192L80.8958 39.9193C84.6118 39.9193 87.6241 42.9317 87.6241 46.6476L87.6241 84.1794C87.6241 84.1794 86.8483 47.7977 7.74121 42.6091C8.96901 40.9784 10.9152 39.9192 13.1136 39.9192Z" fill="#5094FF"/>
<path d="M82.3516 78.8318V79.876H82.3377C82.3649 81.2882 81.187 82.4745 79.7669 82.4745L72.9402 82.4745C71.5453 82.4745 70.3418 81.3101 70.3694 79.876H70.3555V78.8318H70.5222C70.9253 77.8174 72.0231 77.1226 73.1763 77.1226L79.5306 77.1226C80.684 77.1226 81.7818 77.8174 82.1849 78.8318H82.3516Z" fill="#E3E7F0"/>
<path d="M79.7592 81.4381L73.16 81.4382C71.8304 81.4383 70.574 80.5355 70.3873 79.219C70.16 77.616 71.3999 76.2406 72.9592 76.2406L79.5324 76.2405C80.9424 76.2405 82.2554 77.2636 82.3413 78.671C82.4366 80.2332 81.2013 81.4381 79.7592 81.4381Z" fill="white"/>
<path d="M62.7862 78.8318V79.876H62.7723C62.7995 81.2882 61.6215 82.4745 60.2015 82.4745L53.3747 82.4745C51.9799 82.4745 50.7763 81.3101 50.8039 79.876H50.79V78.8318H50.9568C51.3598 77.8174 52.4577 77.1226 53.6109 77.1226L59.9652 77.1226C61.1185 77.1226 62.2164 77.8174 62.6195 78.8318H62.7862Z" fill="#E3E7F0"/>
<path d="M60.1938 81.4381L53.5946 81.4382C52.265 81.4383 51.0085 80.5355 50.8219 79.219C50.5946 77.616 51.8344 76.2406 53.3937 76.2406L59.967 76.2405C61.3769 76.2405 62.69 77.2636 62.7758 78.671C62.8711 80.2332 61.6359 81.4381 60.1938 81.4381Z" fill="white"/>
<path d="M43.2198 78.8318V79.876H43.2059C43.2331 81.2882 42.0551 82.4745 40.6351 82.4745H33.8083C32.4135 82.4745 31.2099 81.3101 31.2375 79.876H31.2236V78.8318H31.3904C31.7934 77.8174 32.8913 77.1226 34.0445 77.1226H40.3988C41.5521 77.1226 42.65 77.8174 43.053 78.8318H43.2198Z" fill="#E3E7F0"/>
<path d="M40.6274 81.4381L34.0282 81.4382C32.6986 81.4383 31.4421 80.5355 31.2555 79.219C31.0282 77.616 32.268 76.2406 33.8273 76.2406L40.4006 76.2405C41.8105 76.2405 43.1236 77.2636 43.2094 78.671C43.3047 80.2332 42.0695 81.4381 40.6274 81.4381Z" fill="white"/>
<path d="M23.6534 78.832V79.8763H23.6395C23.6667 81.2885 22.4887 82.4747 21.0687 82.4747L14.2419 82.4747C12.8471 82.4747 11.6435 81.3103 11.6711 79.8763H11.6572V78.832H11.824C12.227 77.8176 13.3249 77.1228 14.478 77.1228L20.8324 77.1228C21.9857 77.1228 23.0836 77.8176 23.4866 78.832H23.6534Z" fill="#E3E7F0"/>
<path d="M21.061 81.4384L14.4618 81.4385C13.1322 81.4385 11.8757 80.5357 11.6891 79.2193C11.4618 77.6163 12.7016 76.2408 14.2609 76.2408L20.8342 76.2407C22.2441 76.2407 23.5572 77.2639 23.643 78.6712C23.7383 80.2334 22.5031 81.4384 21.061 81.4384Z" fill="white"/>
<path d="M11.6621 51.775L11.6621 58.0534C11.6621 59.636 12.9451 60.919 14.5277 60.919L26.2838 60.9189C27.8664 60.9189 29.1494 59.636 29.1494 58.0534L29.1494 51.775C29.1494 50.1924 27.8664 48.9094 26.2838 48.9094L14.5277 48.9095C12.9451 48.9095 11.6621 50.1924 11.6621 51.775Z" fill="#FEBC1F"/>
<path d="M11.6621 50.7967L11.6621 57.0751C11.6621 58.6577 12.9451 59.9407 14.5277 59.9407L26.2838 59.9407C27.8664 59.9407 29.1494 58.6577 29.1494 57.0751V50.7967C29.1494 49.2141 27.8664 47.9312 26.2838 47.9312L14.5277 47.9312C12.9451 47.9312 11.6621 49.2141 11.6621 50.7967Z" fill="#FFD475"/>
<path d="M20.1012 53.2585V47.9312H18.7401V53.2585H11.6621V54.6196H15.5345V59.9406H16.8956V54.6196H23.0241V59.9406H24.3852V54.6196H29.1494V53.2585H20.1012Z" fill="#FEBC1F"/>
<path d="M81.1092 57.959L73.4461 57.959C72.8075 57.9591 72.2042 57.5255 72.1145 56.8933C72.0054 56.1235 72.6008 55.4629 73.3496 55.4629L81.0003 55.4629C81.6774 55.4629 82.308 55.9542 82.3492 56.6301C82.395 57.3803 81.8018 57.959 81.1092 57.959Z" fill="white"/>
<path d="M81.109 52.616L67.6551 52.616C67.0165 52.616 66.4131 52.1825 66.3235 51.5503C66.2143 50.7805 66.8098 50.1199 67.5586 50.1199L81 50.1199C81.6772 50.1199 82.3077 50.6112 82.349 51.2871C82.3947 52.0373 81.8015 52.616 81.109 52.616Z" fill="white"/>
<path d="M79.0645 23.5205C82.2676 27.6308 84.8855 32.0978 86.8914 36.9078C83.6835 32.8007 81.0752 28.328 79.0645 23.5205Z" fill="white"/>
<path d="M19.376 36.9049C24.0438 33.3331 29.0707 30.3448 34.446 27.9661C29.7811 31.5426 24.7484 34.5212 19.376 36.9049Z" fill="white"/>
<path d="M57.9238 87.5298C63.7604 86.8394 69.6083 86.8334 75.4447 87.5298C69.6083 88.2261 63.7604 88.2205 57.9238 87.5298Z" fill="white"/>
</svg>
