<svg width="80" height="80" viewBox="0 0 80 80" fill="none" xmlns="http://www.w3.org/2000/svg">
<g clip-path="url(#clip0_2367_300)">
<path d="M65.3866 0H40L36.875 5.46875L40 12.0725C43.1294 13.8608 45.5634 16.7327 46.7841 20.175H40L36.875 25.2188L40 30.2625H46.7841C45.5634 33.7047 43.1294 36.5766 40 38.365L36.875 44.5312L40 49.303C48.6955 46.5961 55.388 39.3009 57.23 30.2623H65.3867V20.175H57.23C56.4709 16.4502 54.8878 13.0214 52.6806 10.0877H65.3867V0L65.3866 0Z" fill="#FFC34D"/>
<path d="M44.1764 79.9999L51.3092 72.8669L40 61.5579L36.875 66.5624L40 75.8235L44.1764 79.9999Z" fill="#FFC34D"/>
<path d="M32.5183 40.3497H14.6133V50.437L39.9998 75.8236V61.5578L28.8789 50.4368H32.5183C35.1223 50.4368 37.6348 50.0389 39.9998 49.3028V38.3645C37.7919 39.6264 35.2384 40.3497 32.5183 40.3497Z" fill="#FFE14D"/>
<path d="M14.6133 20.1748H39.9998V30.2621H14.6133V20.1748Z" fill="#FFE14D"/>
<path d="M32.5183 0H14.6133V10.0873H32.5184C35.2386 10.0873 37.792 10.8106 40 12.0723V0H32.5183Z" fill="#FFE14D"/>
</g>
<defs>
<clipPath id="clip0_2367_300">
<rect width="80" height="80" fill="white"/>
</clipPath>
</defs>
</svg>
